# xmcd
#
# Track frame offsets:
#	150
#	15719
#	30447
#	45383
#	59962
#	70609
#	83687
#	98627
#
# Disc length: 1509 seconds
#
# Revision: 2
# Processed by: cddbd v1.5.2PL0 Copyright (c) Steve Scherf et al.
# Submitted via: audiograbber 1.83.01
#
DISCID=5a05e308
DTITLE=Various Artist - New Country - Volume 5 - Number 6
DYEAR=1998
DGENRE=Country
TTITLE0=T.G. Sheppard - She's Gettin' A Rock And I'm Gettin' Stoned
TTITLE1=Jo-El Sonnier - Broken Hearted Side Of New Orleans
TTITLE2=Jim Lauderdale - Whisper
TTITLE3=Robin And Linda Williams - Things I've Learned
TTITLE4=Neko Case And Her Boyfriends - Honky Tonk Hiccups
TTITLE5=Patti Davis And Bandit - Stranger In Your Eyes
TTITLE6=Ruby Lovett - When He's All You've Got
TTITLE7=Carrie Newcomer - What Kind Of Love Is This
EXTD=
EXTT0=
EXTT1=
EXTT2=
EXTT3=
EXTT4=
EXTT5=
EXTT6=
EXTT7=
PLAYORDER=
